<svg xmlns="http://www.w3.org/2000/svg" viewBox="0 0 108 108" role="img" aria-label="S.O.S do Bem">
  <rect width="108" height="108" rx="22" fill="#faf5ef"/>
  <path fill="#862542" d="M27 43c11-25 43-34 69-16-25-3-47 5-60 22-5 7-8 15-8 23-9-8-11-19-1-29z"/>
  <path fill="#c75a58" d="M47 33c15-15 39-19 57-6-18-1-31 5-41 16-6 7-14 5-16-10z"/>
  <path fill="#43704a" d="M22 68c17 24 51 31 78 12-29 5-52-5-67-25-6-8-13-13-21-14-5-1-6 13 10 27z"/>
  <path fill="#245b43" d="M61 80c22-5 36-21 42-42 11 8 7 31-10 45-12 10-25 13-36 9-5-2-2-10 4-12z"/>
  <path fill="#b88b3b" d="M54 73C40 63 32 55 32 44c0-10 7-16 16-16 5 0 9 3 12 8 3-5 7-8 13-8 9 0 16 6 16 16 0 11-11 21-35 29z"/>
  <path fill="none" stroke="#fffaf4" stroke-width="3" stroke-linecap="round" d="M38 53c8 11 18 17 31 18"/>
</svg>
